<?xml version="1.0" encoding="utf-8"?>
<!-- Generator: Adobe Illustrator 21.0.0, SVG Export Plug-In . SVG Version: 6.00 Build 0)  -->
<svg version="1.1" id="圖層_1" xmlns="http://www.w3.org/2000/svg" xmlns:xlink="http://www.w3.org/1999/xlink" x="0px" y="0px"
	 viewBox="0 0 120 120" style="enable-background:new 0 0 120 120;" xml:space="preserve">
<g id="TYPE_A_1_">
	<g>
		<path d="M94,0H26C11.6,0,0,11.6,0,26v68c0,14.4,11.6,26,26,26h68c14.4,0,26-11.6,26-26V26C120,11.6,108.4,0,94,0z M94,76.6
			C84.9,87.2,64.4,100,59.7,102c-4.7,1.9-4-1.3-3.8-2.4c0.1-0.6,0.6-3.7,0.6-3.7c0.2-1.2,0.3-2.9-0.1-4C56,90.6,54,90,52.6,89.7
			c-21-2.8-36.5-17.5-36.5-35c0-19.6,19.6-35.5,43.7-35.5c24.1,0,43.7,15.9,43.7,35.5C103.5,62.5,100.5,69.6,94,76.6z"/>
		<g>
			<path d="M50.9,45.3h-3.1c-0.5,0-0.9,0.4-0.9,0.8v19c0,0.5,0.4,0.8,0.9,0.8h3.1c0.5,0,0.9-0.4,0.9-0.8v-19
				C51.8,45.7,51.4,45.3,50.9,45.3"/>
			<path d="M72,45.3h-3c-0.5,0-0.9,0.4-0.9,0.8v11.3l-8.7-11.8c0,0,0-0.1-0.1-0.1l0,0c0,0,0,0-0.1-0.1l0,0l0,0l0,0l0,0l0,0l0,0l0,0
				l0,0l0,0c0,0,0,0-0.1,0l0,0l0,0l0,0l0,0l0,0l0,0H56c-0.5,0-0.9,0.4-0.9,0.8v19c0,0.5,0.4,0.8,0.9,0.8h3.1c0.5,0,0.9-0.4,0.9-0.8
				V53.9l8.7,11.8c0.1,0.1,0.1,0.2,0.2,0.2l0,0c0,0,0,0,0.1,0l0,0l0,0l0,0l0,0c0,0,0,0,0.1,0l0,0c0.1,0,0.1,0,0.2,0H72
				c0.5,0,0.9-0.4,0.9-0.8v-19C72.9,45.7,72.5,45.3,72,45.3"/>
			<path d="M43.5,61.2h-8.3V46.1c0-0.5-0.4-0.9-0.9-0.9h-3.1c-0.5,0-0.9,0.4-0.9,0.9v19l0,0c0,0.2,0.1,0.4,0.2,0.6l0,0l0,0
				c0.2,0.1,0.4,0.2,0.6,0.2l0,0h12.2c0.5,0,0.8-0.4,0.8-0.9v-3.1C44.4,61.6,44,61.2,43.5,61.2"/>
			<path d="M88.9,50c0.5,0,0.8-0.4,0.8-0.9V46c0-0.5-0.4-0.9-0.8-0.9H76.7l0,0c-0.2,0-0.4,0.1-0.6,0.2l0,0l0,0
				c-0.1,0.2-0.2,0.4-0.2,0.6l0,0v19l0,0c0,0.2,0.1,0.4,0.2,0.6l0,0l0,0c0.2,0.1,0.4,0.2,0.6,0.2l0,0h12.2c0.5,0,0.8-0.4,0.8-0.9
				v-3.1c0-0.5-0.4-0.9-0.8-0.9h-8.3V58h8.3c0.5,0,0.8-0.4,0.8-0.9V54c0-0.5-0.4-0.9-0.8-0.9h-8.3V50H88.9z"/>
		</g>
	</g>
</g>
</svg>
